<svg width="24" height="24" viewBox="0 0 24 24" fill="none" xmlns="http://www.w3.org/2000/svg">
<path d="M20.6227 17.3654C20.2996 18.0991 19.917 18.7744 19.4738 19.3953C18.8697 20.2418 18.3751 20.8277 17.9938 21.153C17.4029 21.6871 16.7697 21.9606 16.0917 21.9762C15.605 21.9762 15.018 21.8401 14.3348 21.564C13.6492 21.2891 13.0192 21.153 12.4432 21.153C11.8391 21.153 11.1911 21.2891 10.4981 21.564C9.80402 21.8401 9.24486 21.9839 8.81735 21.9982C8.16718 22.0254 7.51913 21.7441 6.87226 21.153C6.45939 20.7992 5.94297 20.1925 5.32433 19.3331C4.66057 18.4153 4.11488 17.3511 3.68737 16.1378C3.22952 14.8273 3 13.5583 3 12.3297C3 10.9223 3.30945 9.70852 3.92928 8.69134C4.41642 7.87431 5.06447 7.22981 5.87557 6.75668C6.68666 6.28355 7.56305 6.04244 8.50684 6.02702C9.02326 6.02702 9.70047 6.18399 10.542 6.4925C11.3812 6.80205 11.9201 6.95903 12.1563 6.95903C12.3329 6.95903 12.9315 6.77548 13.9463 6.40954C14.9059 6.07018 15.7158 5.92967 16.3793 5.98502C18.1772 6.12761 19.5279 6.82409 20.4262 8.07886C18.8183 9.03628 18.0229 10.3773 18.0387 12.0975C18.0532 13.4375 18.5479 14.5525 19.52 15.4378C19.9606 15.8488 20.4526 16.1663 21 16.3919C20.8813 16.7302 20.756 17.0543 20.6227 17.3654ZM16.4993 1.42012C16.4993 2.47036 16.1089 3.45096 15.3306 4.3586C14.3915 5.43761 13.2555 6.06111 12.0236 5.96272C12.0079 5.83673 11.9988 5.70412 11.9988 5.56477C11.9988 4.55654 12.4454 3.47754 13.2386 2.59531C13.6346 2.14862 14.1382 1.7772 14.7489 1.48091C15.3583 1.18905 15.9348 1.02764 16.4769 1C16.4927 1.1404 16.4993 1.28081 16.4993 1.42011V1.42012Z" fill="white"/>
</svg>
