<svg width="24" height="24" viewBox="0 0 24 24" fill="none" xmlns="http://www.w3.org/2000/svg">
<path fill-rule="evenodd" clip-rule="evenodd" d="M21.6 12.2271C21.6 11.518 21.5364 10.8362 21.4182 10.1816H12V14.0498H17.3818C17.15 15.2998 16.4455 16.3589 15.3864 17.068V19.5771H18.6182C20.5091 17.8362 21.6 15.2725 21.6 12.2271Z" fill="#4285F4"/>
<path fill-rule="evenodd" clip-rule="evenodd" d="M12.0001 22.0004C14.7001 22.0004 16.9637 21.1049 18.6183 19.5777L15.3864 17.0686C14.491 17.6686 13.3455 18.0231 12.0001 18.0231C9.39554 18.0231 7.19099 16.264 6.40463 13.9004H3.06372V16.4913C4.70918 19.7595 8.09099 22.0004 12.0001 22.0004Z" fill="#34A853"/>
<path fill-rule="evenodd" clip-rule="evenodd" d="M6.40455 13.8997C6.20455 13.2997 6.09091 12.6588 6.09091 11.9997C6.09091 11.3406 6.20455 10.6997 6.40455 10.0997V7.50879H3.06364C2.38636 8.85879 2 10.3861 2 11.9997C2 13.6133 2.38636 15.1406 3.06364 16.4906L6.40455 13.8997Z" fill="#FBBC05"/>
<path fill-rule="evenodd" clip-rule="evenodd" d="M12.0001 5.97727C13.4683 5.97727 14.7864 6.48182 15.8228 7.47273L18.691 4.60455C16.9592 2.99091 14.6955 2 12.0001 2C8.09099 2 4.70918 4.24091 3.06372 7.50909L6.40463 10.1C7.19099 7.73636 9.39554 5.97727 12.0001 5.97727Z" fill="#EA4335"/>
</svg>
